<svg version="1" xmlns="http://www.w3.org/2000/svg" width="533.333" height="533.333" viewBox="0 0 400.000000 400.000000"><path d="M172.5 15.6c-14.8 8.6-31.3 18.1-36.5 21.1-16.4 9.6-21.9 12.7-47.5 27.6-13.7 7.9-27 15.5-29.5 16.9-2.5 1.4-8 4.6-12.3 7.2-4.3 2.5-8 4.6-8.2 4.6-.2 0-3.1 1.6-6.4 3.6l-6.1 3.6v199.5l24.1 13.9c26.7 15.4 27.2 15.6 41.4 23.9 30.7 17.8 40.8 23.5 41.6 23.5.5 0 .9.4.9 1 0 .5.4 1 .9 1 .8 0 10.5 5.5 54.8 31.2l10.2 5.9 19.3-11.2c10.6-6.1 21.3-12.3 23.8-13.7 2.5-1.4 12.5-7.2 22.4-12.9 9.8-5.6 18.2-10.3 18.5-10.3.4 0 1.3-.6 1.9-1.2.7-.7 4.1-2.9 7.6-4.8s9.5-5.3 13.2-7.4c3.8-2.2 8.3-4.7 9.9-5.7 1.7-.9 8.2-4.7 14.5-8.4 6.3-3.7 13.9-8.1 16.8-9.7 3-1.7 9.8-5.6 15.2-8.8 5.4-3.2 10.1-5.6 10.4-5.2.3.3.5-44.8.4-100.2l-.3-100.8-4.2-2.4c-6-3.3-41.8-23.9-53.8-30.9-5.5-3.2-11.3-6.6-13-7.5-1.6-.9-11.8-6.8-22.5-13s-21.1-12.2-23-13.3c-1.9-1-8.7-5-15-8.7-19.8-11.5-41.6-24-42.1-24-.2 0-12.5 7.1-27.4 15.6zm76.1 25C275 55.8 298.5 69.4 301 71c2.5 1.5 7 4.1 10 5.7 5.8 3.2 35.9 20.5 39.7 22.9 1.3.8 2.4 1.3 2.5 1.2.2-.2 1.7.7 3.5 2 1.7 1.2 3.6 2.2 4.2 2.2.6 0 1.1 1 1.2 2.2.3 6.8.4 183.6.1 185-.3 1.4-12.7 9.1-31.2 19.5-5.3 3-28.3 16.2-30 17.3-1.3.8-14.6 8.5-22.5 13-1.6 1-13.3 7.7-26 15-12.6 7.3-26.8 15.5-31.5 18.2-4.7 2.6-9.2 5.3-10 5.8-3.7 2.3-10.3 6-10.7 6-.2 0-.4-3-.3-6.8.1-3.7.1-46.1.1-94.2l-.1-87.5-9.8-5.6c-13.3-7.7-41.4-23.9-43.2-25-2.5-1.5-69.2-39.9-74.9-43.1-2.9-1.6-7.7-4.4-10.5-6-5.3-3.2-7.1-4.2-16.9-9.8-5.1-2.9-5.6-3.4-4-4.4 3.9-2.4 6-3.6 10.8-6.2 2.8-1.4 5.7-3.2 6.6-4 .8-.8 1.8-1.4 2.1-1.4.4 0 3.9-1.9 8-4.3 4-2.4 9.3-5.5 11.8-6.9 6.5-3.7 20.7-11.9 42.5-24.5 10.5-6 29.6-17 42.5-24.5 12.9-7.5 25.8-14.9 28.5-16.6 2.8-1.7 5.5-3.1 6.1-3.1.7-.1 22.7 12.3 49 27.5zM57.1 119.5C67 125.3 75.3 130 75.5 130c.2 0 4 2.2 8.5 5 4.5 2.7 8.3 5 8.5 5 .3 0 29.7 17 30.4 17.6.2.2-.8 2.8-2.2 5.8-7.7 16.1-10 37.9-6.1 55.4 1.1 4.8 5.7 17.7 7.1 19.7 1.9 2.9 1.6 4-1.4 5.6-2.5 1.2-13.1 7.3-17.3 9.9-1.5.9-25.7 14.9-34.9 20.1-2.5 1.4-10.2 5.8-17 9.8-6.8 3.9-12.7 6.9-13 6.6-.9-1-.7-181.5.2-181.5.5 0 8.9 4.7 18.8 10.5zM138 260.6c13.8 14.2 34.8 24.3 53.4 25.8 2.8.3 5.4.5 5.7.5.9.1.8 98.1-.1 98.6-.4.3-1.3-.2-2-1s-1.6-1.5-2.1-1.5-2.6-1.1-4.7-2.4c-2-1.3-11.6-6.9-21.2-12.4-19.2-11-110.4-63.6-121.4-70l-6.8-3.9 7.6-4.4c4.2-2.4 8.9-5.1 10.4-5.9 1.5-.9 4.7-2.7 7.2-4.2 14.3-8.3 50.3-29 54.5-31.3 2.8-1.5 5.4-3.1 5.9-3.5.4-.5 2.5 1.6 4.5 4.6 2 2.9 6.1 7.9 9.1 11z"/></svg>